<svg xmlns="http://www.w3.org/2000/svg" xmlns:xlink="http://www.w3.org/1999/xlink" width="600" zoomAndPan="magnify" viewBox="0 0 450 74.999997" height="100" preserveAspectRatio="xMidYMid meet" version="1.0"><defs><g/></defs><g fill="rgb(44.709778%, 5.488586%, 5.488586%)" fill-opacity="1"><g transform="translate(14.170863, 56.84747)"><g><path d="M 0 -19.242188 C 0 -12.34375 3.164062 -4.71875 12.550781 -1.554688 C 15.609375 -0.464844 19.136719 0.0507812 22.402344 0.0507812 C 25.410156 0.0507812 28.523438 -0.363281 31.324219 -1.347656 L 31.273438 -0.15625 L 46.519531 0.0507812 L 45.429688 -1.191406 C 42.734375 -4.199219 41.488281 -9.492188 41.488281 -13.121094 C 41.488281 -15.816406 41.957031 -18.460938 42.886719 -21.054688 L 43.199219 -21.988281 L 20.070312 -21.988281 L 20.484375 -21.003906 C 20.953125 -19.914062 21.105469 -18.617188 21.105469 -17.425781 C 21.105469 -16.335938 20.953125 -15.246094 20.433594 -14.210938 L 19.964844 -13.222656 L 30.648438 -13.015625 C 30.546875 -12.757812 30.390625 -12.550781 30.285156 -12.34375 C 29.921875 -11.875 29.25 -11.148438 28.78125 -10.632812 C 28.160156 -10.007812 26.035156 -9.59375 24.582031 -9.59375 C 23.753906 -9.59375 22.609375 -9.699219 21.417969 -9.90625 C 17.582031 -10.425781 15.453125 -10.941406 12.5 -13.898438 C 11.511719 -14.9375 11.203125 -16.386719 11.203125 -17.890625 C 11.203125 -24.632812 15.558594 -28.367188 22.144531 -28.367188 C 25.878906 -28.367188 28.316406 -27.121094 28.316406 -24.476562 C 28.316406 -24.324219 28.316406 -24.167969 28.265625 -24.011719 L 28.054688 -22.871094 L 29.558594 -23.128906 C 31.582031 -23.542969 33.761719 -23.699219 35.886719 -23.699219 C 37.859375 -23.699219 39.777344 -23.542969 41.488281 -23.027344 L 42.734375 -22.609375 L 42.886719 -23.648438 C 42.941406 -24.0625 42.992188 -24.476562 42.992188 -24.839844 C 42.992188 -30.234375 39.878906 -35.316406 33.191406 -37.910156 C 32.359375 -38.117188 31.480469 -38.429688 30.703125 -38.738281 C 30.546875 -38.792969 30.390625 -38.792969 30.285156 -38.84375 C 30.078125 -38.894531 29.871094 -38.894531 29.820312 -38.894531 C 25.464844 -38.894531 19.136719 -38.53125 14.988281 -37.390625 C 5.910156 -34.851562 1.554688 -27.902344 0.105469 -21.367188 C -0.0507812 -20.691406 0 -19.914062 0 -19.242188 Z M 0 -19.242188 "/></g></g></g><g fill="rgb(44.709778%, 5.488586%, 5.488586%)" fill-opacity="1"><g transform="translate(62.036162, 56.84747)"><g><path d="M 15.816406 0 L 18.824219 -6.585938 C 21.574219 -7.054688 24.476562 -7.261719 27.332031 -7.261719 C 30.390625 -7.261719 33.65625 -7.105469 36.613281 -6.585938 L 39.621094 0 L 55.074219 -0.105469 L 54.246094 -1.246094 C 47.867188 -9.851562 42.679688 -19.03125 39.257812 -28.523438 C 38.429688 -30.855469 37.597656 -33.292969 37.183594 -35.730469 L 37.082031 -36.300781 L 36.355469 -36.40625 C 30.648438 -37.132812 24.945312 -37.960938 19.292969 -38.894531 L 18.152344 -39.050781 L 18.046875 -38.222656 C 17.683594 -35.472656 16.804688 -32.671875 15.871094 -29.976562 C 12.550781 -20.019531 7.363281 -10.371094 1.191406 -1.246094 L 0.414062 -0.105469 Z M 27.695312 -27.695312 L 31.84375 -17.632812 C 29.09375 -17.632812 26.34375 -17.632812 23.597656 -17.632812 Z M 27.695312 -27.695312 "/></g></g></g><g fill="rgb(44.709778%, 5.488586%, 5.488586%)" fill-opacity="1"><g transform="translate(117.524652, 56.84747)"><g><path d="M 1.140625 -39 L 1.347656 -38.015625 C 2.644531 -32.308594 3.007812 -25.464844 3.007812 -19.65625 C 3.007812 -13.378906 2.488281 -7.105469 1.347656 -0.882812 L 1.191406 0 L 15.816406 0 L 15.660156 -0.882812 C 14.9375 -5.550781 14.574219 -10.371094 14.574219 -15.089844 C 14.574219 -17.632812 14.675781 -20.226562 15.144531 -22.765625 C 19.550781 -16.128906 23.441406 -8.609375 24.632812 -0.675781 L 24.738281 0 L 36.976562 0 L 37.082031 -0.675781 C 38.167969 -7.882812 42.265625 -16.804688 46.570312 -22.765625 C 47.039062 -20.226562 47.089844 -17.632812 47.089844 -15.089844 C 47.089844 -10.371094 46.726562 -5.550781 46.050781 -0.828125 L 45.898438 0 L 60.46875 0 L 60.3125 -0.882812 C 59.171875 -7.3125 58.550781 -13.847656 58.550781 -20.382812 C 58.550781 -25.046875 58.757812 -30.855469 59.847656 -35.523438 L 60.054688 -36.355469 L 38.117188 -37.597656 L 38.117188 -36.820312 C 37.804688 -31.167969 34.433594 -23.699219 30.855469 -18.152344 C 27.277344 -23.699219 23.855469 -31.21875 23.542969 -36.925781 L 23.542969 -37.597656 Z M 1.140625 -39 "/></g></g></g><g fill="rgb(44.709778%, 5.488586%, 5.488586%)" fill-opacity="1"><g transform="translate(179.13243, 56.84747)"><g><path d="M 0.726562 -37.960938 C 1.191406 -36.613281 1.453125 -35.214844 1.660156 -33.8125 C 2.386719 -29.558594 2.695312 -25.203125 2.695312 -20.898438 C 2.695312 -14.210938 1.96875 -7.519531 0.726562 -0.882812 L 0.570312 0 L 39.257812 0 L 39.101562 -0.882812 C 38.792969 -2.332031 38.6875 -3.785156 38.6875 -5.238281 C 38.6875 -6.84375 38.792969 -8.558594 39.101562 -10.164062 L 39.257812 -11.046875 L 15.195312 -10.839844 L 15.300781 -14.210938 L 39.414062 -14.210938 L 39.050781 -15.195312 C 38.585938 -16.492188 38.429688 -17.945312 38.429688 -19.34375 C 38.429688 -21.367188 38.6875 -23.492188 39.257812 -25.515625 L 39.570312 -26.550781 L 15.195312 -24.945312 L 15.195312 -27.539062 L 39.363281 -27.796875 L 39.050781 -28.730469 C 38.585938 -30.183594 38.324219 -31.6875 38.324219 -33.140625 C 38.324219 -33.863281 38.375 -34.851562 38.585938 -35.421875 L 38.945312 -36.300781 L 0.414062 -39 Z M 0.726562 -37.960938 "/></g></g></g><g fill="rgb(44.709778%, 5.488586%, 5.488586%)" fill-opacity="1"><g transform="translate(220.982159, 56.84747)"><g/></g></g><g fill="rgb(44.709778%, 5.488586%, 5.488586%)" fill-opacity="1"><g transform="translate(241.466218, 56.84747)"><g><path d="M 17.425781 0 L 30.597656 0 C 40.296875 0 47.867188 -8.347656 47.867188 -17.789062 L 47.867188 -21.105469 C 47.867188 -30.597656 40.347656 -38.894531 30.597656 -38.894531 L 17.425781 -38.894531 C 7.675781 -38.894531 0.207031 -30.546875 0.207031 -21.105469 L 0.207031 -17.789062 C 0.207031 -8.347656 7.726562 0 17.425781 0 Z M 20.589844 -29.09375 L 27.746094 -29.09375 C 32.308594 -29.09375 34.902344 -24.738281 34.902344 -21.316406 L 34.902344 -17.632812 C 34.902344 -14.15625 32.308594 -9.800781 27.746094 -9.800781 L 20.589844 -9.800781 C 16.023438 -9.800781 13.433594 -14.105469 13.433594 -17.632812 L 13.433594 -21.316406 C 13.433594 -24.789062 16.023438 -29.09375 20.589844 -29.09375 Z M 20.589844 -29.09375 "/></g></g></g><g fill="rgb(44.709778%, 5.488586%, 5.488586%)" fill-opacity="1"><g transform="translate(289.538952, 56.84747)"><g><path d="M 0.570312 -39.050781 L 1.453125 -37.753906 C 3.527344 -34.902344 5.289062 -31.894531 7.054688 -28.886719 C 12.289062 -19.863281 16.855469 -10.371094 18.773438 -0.675781 L 18.878906 0 L 36.5625 0 L 36.664062 -0.675781 C 38.53125 -9.957031 42.628906 -19.03125 47.554688 -27.695312 C 49.007812 -30.234375 50.5625 -32.828125 52.273438 -35.265625 L 52.949219 -36.25 L 37.910156 -37.652344 L 37.597656 -37.183594 C 33.292969 -30.339844 29.613281 -23.078125 27.746094 -15.558594 C 25.828125 -23.078125 22.144531 -30.390625 17.839844 -37.234375 L 17.582031 -37.597656 Z M 0.570312 -39.050781 "/></g></g></g><g fill="rgb(44.709778%, 5.488586%, 5.488586%)" fill-opacity="1"><g transform="translate(343.108692, 56.84747)"><g><path d="M 0.726562 -37.960938 C 1.191406 -36.613281 1.453125 -35.214844 1.660156 -33.8125 C 2.386719 -29.558594 2.695312 -25.203125 2.695312 -20.898438 C 2.695312 -14.210938 1.96875 -7.519531 0.726562 -0.882812 L 0.570312 0 L 39.257812 0 L 39.101562 -0.882812 C 38.792969 -2.332031 38.6875 -3.785156 38.6875 -5.238281 C 38.6875 -6.84375 38.792969 -8.558594 39.101562 -10.164062 L 39.257812 -11.046875 L 15.195312 -10.839844 L 15.300781 -14.210938 L 39.414062 -14.210938 L 39.050781 -15.195312 C 38.585938 -16.492188 38.429688 -17.945312 38.429688 -19.34375 C 38.429688 -21.367188 38.6875 -23.492188 39.257812 -25.515625 L 39.570312 -26.550781 L 15.195312 -24.945312 L 15.195312 -27.539062 L 39.363281 -27.796875 L 39.050781 -28.730469 C 38.585938 -30.183594 38.324219 -31.6875 38.324219 -33.140625 C 38.324219 -33.863281 38.375 -34.851562 38.585938 -35.421875 L 38.945312 -36.300781 L 0.414062 -39 Z M 0.726562 -37.960938 "/></g></g></g><g fill="rgb(44.709778%, 5.488586%, 5.488586%)" fill-opacity="1"><g transform="translate(384.958422, 56.84747)"><g><path d="M 1.503906 -36.300781 L 1.917969 -35.421875 C 3.628906 -30.753906 3.890625 -24.582031 3.890625 -19.707031 C 3.890625 -13.433594 3.265625 -7.105469 2.332031 -0.882812 L 2.179688 0 L 16.285156 0 L 16.285156 -8.867188 L 28.988281 -8.609375 C 29.09375 -8.609375 29.457031 -8.453125 29.507812 -8.402344 C 31.425781 -7.46875 31.945312 -4.875 31.945312 -2.851562 C 31.945312 -2.179688 31.894531 -1.503906 31.789062 -0.828125 L 31.6875 0 L 49.320312 0 L 48.4375 -1.140625 C 47.246094 -2.695312 46.675781 -5.238281 46.675781 -7.054688 C 46.675781 -9.542969 45.535156 -14.210938 41.332031 -15.453125 C 45.117188 -18.667969 46.570312 -22.664062 46.570312 -26.914062 C 46.570312 -31.011719 44.132812 -38.945312 36.042969 -38.945312 C 35.730469 -38.945312 35.421875 -38.894531 35.160156 -38.894531 Z M 16.699219 -22.039062 C 16.855469 -23.183594 16.90625 -24.269531 16.90625 -25.410156 C 16.90625 -26.5 16.855469 -27.640625 16.699219 -28.730469 L 28.9375 -28.730469 C 30.753906 -28.730469 31.945312 -27.902344 31.945312 -26.550781 C 31.945312 -25.722656 31.945312 -24.894531 31.894531 -24.011719 C 31.738281 -22.351562 31.375 -22.039062 29.40625 -22.039062 C 25.152344 -22.039062 20.953125 -22.039062 16.699219 -22.039062 Z M 16.699219 -22.039062 "/></g></g></g></svg>