<svg xmlns="http://www.w3.org/2000/svg" xmlns:xlink="http://www.w3.org/1999/xlink" width="350" zoomAndPan="magnify" viewBox="0 0 262.5 187.499995" height="250" preserveAspectRatio="xMidYMid meet" version="1.0"><defs><g/></defs><path fill="rgb(95.689392%, 93.328857%, 100%)" d="M 135.234375 8.191406 C 88.589844 8.191406 50.773438 46.003906 50.773438 92.648438 C 50.773438 139.292969 88.589844 177.109375 135.234375 177.109375 C 181.878906 177.109375 219.695312 139.292969 219.695312 92.648438 C 219.695312 46.003906 181.878906 8.191406 135.234375 8.191406 " fill-opacity="1" fill-rule="nonzero"/><g fill="rgb(0%, 23.919678%, 45.098877%)" fill-opacity="0.6"><g transform="translate(31.359808, 106.378617)"><g><path d="M 74.203125 -66.257812 L 17.847656 -66.257812 C 13.203125 -66.257812 8.679688 -62.46875 7.824219 -57.824219 L -1.589844 -4.15625 C -1.957031 -1.832031 -0.367188 0 1.957031 0 L 13.449219 0 C 15.769531 0 18.09375 -1.832031 18.460938 -4.15625 L 21.027344 -18.828125 C 21.515625 -21.148438 23.714844 -23.105469 26.039062 -23.105469 L 50.734375 -23.105469 C 53.054688 -23.105469 54.644531 -21.148438 54.277344 -18.828125 L 51.710938 -4.15625 C 51.222656 -1.832031 52.8125 0 55.132812 0 L 66.746094 0 C 69.070312 0 71.269531 -1.832031 71.757812 -4.15625 L 81.171875 -57.824219 C 82.027344 -62.46875 78.851562 -66.257812 74.203125 -66.257812 Z M 58.800781 -44.742188 C 58.679688 -43.886719 57.824219 -43.152344 56.96875 -43.152344 L 26.894531 -43.152344 C 26.039062 -43.152344 25.425781 -43.886719 25.671875 -44.742188 C 25.792969 -45.597656 26.527344 -46.210938 27.503906 -46.210938 L 57.578125 -46.210938 C 58.433594 -46.210938 58.921875 -45.597656 58.800781 -44.742188 Z M 58.800781 -44.742188 "/></g></g></g><g fill="rgb(0%, 23.919678%, 45.098877%)" fill-opacity="0.6"><g transform="translate(111.797257, 106.378617)"><g><path d="M 78.359375 -66.257812 L 66.871094 -66.257812 C 64.425781 -66.257812 62.222656 -64.425781 61.859375 -62.101562 L 55.132812 -24.207031 C 54.765625 -21.882812 52.566406 -20.046875 50.121094 -20.046875 L 25.425781 -20.046875 C 23.105469 -20.046875 21.515625 -21.882812 22.003906 -24.207031 L 28.605469 -62.101562 C 29.09375 -64.425781 27.503906 -66.257812 25.183594 -66.257812 L 13.570312 -66.257812 C 11.246094 -66.257812 9.046875 -64.425781 8.558594 -62.101562 L -0.855469 -8.433594 C -1.710938 -3.789062 1.46875 0 6.113281 0 L 62.46875 0 C 67.113281 0 71.636719 -3.789062 72.371094 -8.433594 L 81.90625 -62.101562 C 82.273438 -64.425781 80.683594 -66.257812 78.359375 -66.257812 Z M 78.359375 -66.257812 "/></g></g></g><g fill="rgb(0%, 23.919678%, 45.098877%)" fill-opacity="0.6"><g transform="translate(192.234706, 106.378617)"><g><path d="M 47.800781 -20.046875 L 25.671875 -20.046875 C 23.226562 -20.046875 21.761719 -21.882812 22.125 -24.207031 L 28.851562 -62.101562 C 29.21875 -64.425781 27.628906 -66.257812 25.304688 -66.257812 L 13.691406 -66.257812 C 11.367188 -66.257812 9.167969 -64.425781 8.800781 -62.101562 L -1.46875 -4.15625 C -1.832031 -1.832031 -0.246094 0 2.078125 0 L 44.253906 0 C 46.578125 0 48.777344 -1.832031 49.265625 -4.15625 L 51.34375 -15.769531 C 51.710938 -18.09375 50.121094 -20.046875 47.800781 -20.046875 Z M 47.800781 -20.046875 "/></g></g></g><g fill="rgb(63.529968%, 82.348633%, 100%)" fill-opacity="1"><g transform="translate(27.539403, 99.76148)"><g><path d="M 74.203125 -66.257812 L 17.847656 -66.257812 C 13.203125 -66.257812 8.679688 -62.46875 7.824219 -57.824219 L -1.589844 -4.15625 C -1.957031 -1.832031 -0.367188 0 1.957031 0 L 13.449219 0 C 15.769531 0 18.09375 -1.832031 18.460938 -4.15625 L 21.027344 -18.828125 C 21.515625 -21.148438 23.714844 -23.105469 26.039062 -23.105469 L 50.734375 -23.105469 C 53.054688 -23.105469 54.644531 -21.148438 54.277344 -18.828125 L 51.710938 -4.15625 C 51.222656 -1.832031 52.8125 0 55.132812 0 L 66.746094 0 C 69.070312 0 71.269531 -1.832031 71.757812 -4.15625 L 81.171875 -57.824219 C 82.027344 -62.46875 78.851562 -66.257812 74.203125 -66.257812 Z M 58.800781 -44.742188 C 58.679688 -43.886719 57.824219 -43.152344 56.96875 -43.152344 L 26.894531 -43.152344 C 26.039062 -43.152344 25.425781 -43.886719 25.671875 -44.742188 C 25.792969 -45.597656 26.527344 -46.210938 27.503906 -46.210938 L 57.578125 -46.210938 C 58.433594 -46.210938 58.921875 -45.597656 58.800781 -44.742188 Z M 58.800781 -44.742188 "/></g></g></g><g fill="rgb(63.529968%, 82.348633%, 100%)" fill-opacity="1"><g transform="translate(107.976851, 99.76148)"><g><path d="M 78.359375 -66.257812 L 66.871094 -66.257812 C 64.425781 -66.257812 62.222656 -64.425781 61.859375 -62.101562 L 55.132812 -24.207031 C 54.765625 -21.882812 52.566406 -20.046875 50.121094 -20.046875 L 25.425781 -20.046875 C 23.105469 -20.046875 21.515625 -21.882812 22.003906 -24.207031 L 28.605469 -62.101562 C 29.09375 -64.425781 27.503906 -66.257812 25.183594 -66.257812 L 13.570312 -66.257812 C 11.246094 -66.257812 9.046875 -64.425781 8.558594 -62.101562 L -0.855469 -8.433594 C -1.710938 -3.789062 1.46875 0 6.113281 0 L 62.46875 0 C 67.113281 0 71.636719 -3.789062 72.371094 -8.433594 L 81.90625 -62.101562 C 82.273438 -64.425781 80.683594 -66.257812 78.359375 -66.257812 Z M 78.359375 -66.257812 "/></g></g></g><g fill="rgb(63.529968%, 82.348633%, 100%)" fill-opacity="1"><g transform="translate(188.4143, 99.76148)"><g><path d="M 47.800781 -20.046875 L 25.671875 -20.046875 C 23.226562 -20.046875 21.761719 -21.882812 22.125 -24.207031 L 28.851562 -62.101562 C 29.21875 -64.425781 27.628906 -66.257812 25.304688 -66.257812 L 13.691406 -66.257812 C 11.367188 -66.257812 9.167969 -64.425781 8.800781 -62.101562 L -1.46875 -4.15625 C -1.832031 -1.832031 -0.246094 0 2.078125 0 L 44.253906 0 C 46.578125 0 48.777344 -1.832031 49.265625 -4.15625 L 51.34375 -15.769531 C 51.710938 -18.09375 50.121094 -20.046875 47.800781 -20.046875 Z M 47.800781 -20.046875 "/></g></g></g><g fill="rgb(63.529968%, 82.348633%, 100%)" fill-opacity="0.6"><g transform="translate(24.937247, 145.232388)"><g><path d="M 4.035156 0.0351562 L 18.1875 0.0351562 C 20.933594 0.0351562 25.664062 0.730469 25.871094 -4.035156 C 25.871094 -4.035156 26.253906 -6.605469 23.992188 -8.34375 C 22.011719 -9.875 17.527344 -10.433594 10.464844 -11.441406 C 9.527344 -11.578125 8.101562 -11.789062 8.207031 -12.308594 C 8.3125 -12.761719 9.386719 -12.761719 10.363281 -12.761719 C 12.796875 -12.691406 19.300781 -12.761719 24.617188 -11.542969 C 25.175781 -11.441406 25.523438 -11.683594 25.523438 -12.238281 L 25.523438 -13.179688 L 25.695312 -16.449219 C 25.800781 -18.429688 24.550781 -19.75 22.566406 -19.75 L 9.355469 -19.75 C 5.84375 -19.75 2.363281 -19.265625 1.078125 -16.273438 C 1.078125 -16.273438 0.0703125 -13.351562 1.878906 -11.71875 C 3.6875 -10.050781 7.40625 -9.320312 16.65625 -7.964844 C 17.144531 -7.894531 18.429688 -7.753906 18.429688 -7.234375 C 18.464844 -6.570312 17.039062 -6.675781 16.238281 -6.710938 C 14.328125 -6.78125 7.371094 -6.851562 2.050781 -8.3125 C 1.460938 -8.484375 1.078125 -8.207031 1.078125 -7.582031 L 1.078125 -6.539062 L 0.902344 -3.269531 C 0.800781 -1.285156 2.050781 0.0351562 4.035156 0.0351562 Z M 4.035156 0.0351562 "/></g></g></g><g fill="rgb(63.529968%, 82.348633%, 100%)" fill-opacity="0.6"><g transform="translate(51.538075, 145.232388)"><g><path d="M 1.183594 -15.855469 L 1.183594 -3.71875 C 1.183594 -1.496094 2.675781 0 4.867188 0 C 7.09375 0 8.554688 -1.496094 8.519531 -3.6875 L 8.414062 -9.839844 L 8.726562 -15.890625 C 8.867188 -18.1875 7.40625 -19.75 5.078125 -19.75 C 2.746094 -19.75 1.183594 -18.1875 1.183594 -15.855469 Z M 4.035156 -22.011719 L 6.085938 -22.011719 C 8.101562 -22.011719 9.421875 -23.367188 9.421875 -25.382812 C 9.421875 -27.367188 8.101562 -28.722656 6.085938 -28.722656 L 4.035156 -28.722656 C 2.050781 -28.722656 0.695312 -27.367188 0.695312 -25.382812 C 0.695312 -23.367188 2.050781 -22.011719 4.035156 -22.011719 Z M 4.035156 -22.011719 "/></g></g></g><g fill="rgb(63.529968%, 82.348633%, 100%)" fill-opacity="0.6"><g transform="translate(61.691591, 145.232388)"><g><path d="M 32.789062 -19.960938 C 27.261719 -19.960938 26.460938 -13.945312 26.460938 -13.945312 L 25.453125 -13.945312 L 25.453125 -14.917969 C 25.453125 -19.019531 21.386719 -19.820312 19.300781 -19.960938 L 15.054688 -19.960938 C 9.527344 -19.960938 8.726562 -13.945312 8.726562 -13.945312 L 7.859375 -13.945312 L 8.136719 -16.863281 C 8.277344 -18.601562 7.199219 -19.785156 5.460938 -19.785156 L 4.554688 -19.785156 C 2.226562 -19.785156 0.695312 -18.253906 0.695312 -15.925781 L 0.695312 -3.652344 C 0.695312 -1.460938 2.15625 0 4.382812 0 C 6.570312 0 8.03125 -1.460938 8.03125 -3.652344 L 8.03125 -10.085938 C 8.03125 -12.519531 11.441406 -12.273438 11.441406 -12.273438 L 15.371094 -12.273438 C 18.429688 -12.273438 18.359375 -9.910156 18.359375 -9.910156 L 18.394531 -3.511719 C 18.394531 -1.425781 19.820312 0 21.941406 0 L 25.628906 0 C 25.695312 0 25.765625 -0.0703125 25.765625 -0.175781 L 25.765625 -10.085938 C 25.765625 -12.519531 29.175781 -12.273438 29.175781 -12.273438 L 33.105469 -12.273438 C 36.164062 -12.273438 36.09375 -9.910156 36.09375 -9.910156 L 36.09375 -3.546875 C 36.09375 -1.425781 37.519531 0 39.640625 0 C 41.761719 0 43.1875 -1.425781 43.1875 -3.546875 L 43.1875 -14.917969 C 43.1875 -19.019531 39.152344 -19.820312 37.066406 -19.960938 Z M 32.789062 -19.960938 "/></g></g></g><g fill="rgb(63.529968%, 82.348633%, 100%)" fill-opacity="0.6"><g transform="translate(105.609041, 145.232388)"><g><path d="M 6.917969 0 L 11.230469 0 C 16.796875 0 17.59375 -5.910156 17.59375 -5.910156 L 18.464844 -5.910156 L 18.222656 -2.957031 C 18.046875 -1.183594 19.125 0 20.898438 0 L 21.835938 0 C 24.167969 0 25.695312 -1.566406 25.695312 -3.894531 L 25.695312 -16.101562 C 25.695312 -18.289062 24.238281 -19.785156 22.011719 -19.785156 C 19.785156 -19.785156 18.289062 -18.289062 18.289062 -16.101562 L 18.289062 -9.769531 C 18.289062 -7.335938 14.882812 -7.582031 14.882812 -7.582031 L 10.882812 -7.582031 C 7.824219 -7.582031 7.894531 -9.945312 7.894531 -9.945312 L 7.894531 -16.203125 C 7.894531 -18.359375 6.433594 -19.785156 4.3125 -19.785156 C 2.15625 -19.785156 0.730469 -18.359375 0.730469 -16.203125 L 0.730469 -4.902344 C 0.730469 -0.800781 4.832031 -0.140625 6.917969 0 Z M 6.917969 0 "/></g></g></g><g fill="rgb(63.529968%, 82.348633%, 100%)" fill-opacity="0.6"><g transform="translate(132.036005, 145.232388)"><g><path d="M 10.675781 -4.9375 C 10.675781 -6.503906 9.667969 -7.058594 9.074219 -7.824219 C 8.691406 -8.3125 8.554688 -9.320312 8.554688 -11.265625 L 8.554688 -20.410156 C 8.554688 -22.777344 6.988281 -24.339844 4.625 -24.375 C 2.261719 -24.375 0.695312 -22.8125 0.695312 -20.445312 L 0.695312 -6.15625 C 0.695312 -3.09375 1.703125 0 6.292969 0 L 8.484375 0 C 9.804688 0 10.675781 -0.871094 10.675781 -2.191406 Z M 10.675781 -4.9375 "/></g></g></g><g fill="rgb(63.529968%, 82.348633%, 100%)" fill-opacity="0.6"><g transform="translate(143.197923, 145.232388)"><g><path d="M 7.859375 -9.980469 C 7.859375 -10.117188 7.894531 -12.34375 10.882812 -12.34375 L 14.847656 -12.34375 C 14.847656 -12.34375 18.289062 -12.585938 18.289062 -10.152344 L 18.289062 -9.738281 C 18.289062 -7.300781 14.847656 -7.546875 14.847656 -7.546875 L 10.882812 -7.546875 C 7.894531 -7.546875 7.859375 -9.769531 7.859375 -9.910156 Z M 0.695312 -4.902344 C 0.695312 -0.800781 4.796875 -0.140625 6.886719 0 L 11.195312 0 C 16.761719 0 17.558594 -5.910156 17.558594 -5.910156 L 18.289062 -5.910156 L 18.289062 -0.105469 C 18.289062 -0.0351562 18.324219 0 18.359375 0 L 22.046875 0 C 24.238281 0 25.664062 -1.460938 25.664062 -3.617188 L 25.664062 -15.855469 C 25.664062 -18.1875 24.132812 -19.75 21.800781 -19.75 L 18.222656 -19.75 C 18.046875 -19.75 17.90625 -19.613281 17.941406 -19.4375 L 17.941406 -19.125 L 18.289062 -15.925781 L 18.289062 -13.875 L 17.558594 -13.875 C 17.558594 -13.875 16.761719 -19.785156 11.195312 -19.785156 L 6.886719 -19.785156 C 4.796875 -19.648438 0.695312 -18.984375 0.695312 -14.882812 Z M 0.695312 -4.902344 "/></g></g></g><g fill="rgb(63.529968%, 82.348633%, 100%)" fill-opacity="0.6"><g transform="translate(169.590114, 145.232388)"><g><path d="M 9.179688 -19.75 L 9.179688 -22.183594 L 9.25 -23.019531 C 9.285156 -23.507812 8.972656 -23.820312 8.484375 -23.785156 L 2.363281 -23.226562 C 2.015625 -23.195312 1.808594 -22.914062 1.808594 -22.566406 L 1.878906 -21.941406 L 1.878906 -19.75 L 1.285156 -19.75 C 0.9375 -19.75 0.730469 -19.507812 0.730469 -19.160156 L 0.730469 -13.421875 C 0.730469 -13.109375 0.9375 -12.867188 1.285156 -12.867188 L 1.878906 -12.867188 L 1.878906 -6.15625 C 2.015625 -4.070312 2.644531 0 6.746094 0 L 15.996094 0 C 18.117188 0 19.542969 -1.425781 19.542969 -3.546875 C 19.542969 -5.667969 18.117188 -7.09375 15.996094 -7.09375 L 11.753906 -7.09375 C 11.753906 -7.09375 9.492188 -7.058594 9.386719 -9.910156 L 9.386719 -10.085938 L 9.320312 -12.867188 L 16.101562 -12.867188 C 18.152344 -12.867188 19.542969 -14.257812 19.542969 -16.308594 C 19.542969 -18.359375 18.152344 -19.75 16.101562 -19.75 Z M 9.179688 -19.75 "/></g></g></g><g fill="rgb(63.529968%, 82.348633%, 100%)" fill-opacity="0.6"><g transform="translate(189.827601, 145.232388)"><g><path d="M 12.101562 -5.945312 C 10.746094 -5.945312 8.242188 -6.78125 8.242188 -9.945312 C 8.242188 -13.699219 12.136719 -13.839844 12.308594 -13.839844 L 13.910156 -13.839844 C 14.082031 -13.839844 17.976562 -13.734375 18.011719 -9.945312 C 18.011719 -6.292969 14.640625 -5.945312 13.910156 -5.945312 Z M 10.8125 -19.996094 C 2.46875 -19.996094 0.695312 -14.222656 0.695312 -11.753906 L 0.695312 -8.03125 C 0.695312 -1.773438 5.214844 0.207031 11.160156 0.207031 L 15.335938 0.207031 C 21.59375 0.207031 25.488281 -2.675781 25.523438 -8.03125 L 25.523438 -11.753906 C 25.628906 -14.046875 24.167969 -19.996094 15.4375 -19.996094 Z M 10.8125 -19.996094 "/></g></g></g><g fill="rgb(63.529968%, 82.348633%, 100%)" fill-opacity="0.6"><g transform="translate(216.08072, 145.232388)"><g><path d="M 16.726562 -19.890625 L 15.195312 -19.890625 C 9.632812 -19.890625 8.832031 -13.980469 8.832031 -13.980469 L 7.964844 -13.980469 L 8.207031 -16.863281 C 8.378906 -18.570312 7.335938 -19.714844 5.597656 -19.75 L 4.589844 -19.75 C 2.261719 -19.75 0.730469 -18.222656 0.730469 -15.890625 L 0.730469 -3.6875 C 0.730469 -1.496094 2.191406 0 4.417969 0 C 6.640625 0 8.136719 -1.496094 8.136719 -3.6875 L 8.136719 -10.117188 C 8.136719 -12.554688 11.542969 -12.308594 11.542969 -12.308594 L 12.726562 -12.308594 C 15.820312 -12.308594 15.753906 -9.945312 15.753906 -9.945312 L 15.753906 -9.179688 C 15.753906 -8.726562 16.066406 -8.414062 16.515625 -8.414062 L 19.648438 -8.414062 C 21.59375 -8.414062 22.914062 -9.738281 22.914062 -11.71875 L 22.914062 -14.988281 C 22.914062 -19.089844 18.8125 -19.75 16.726562 -19.890625 Z M 16.726562 -19.890625 "/></g></g></g><g fill="rgb(0%, 23.919678%, 45.098877%)" fill-opacity="1"><g transform="translate(23.850473, 143.350046)"><g><path d="M 4.035156 0.0351562 L 18.1875 0.0351562 C 20.933594 0.0351562 25.664062 0.730469 25.871094 -4.035156 C 25.871094 -4.035156 26.253906 -6.605469 23.992188 -8.34375 C 22.011719 -9.875 17.527344 -10.433594 10.464844 -11.441406 C 9.527344 -11.578125 8.101562 -11.789062 8.207031 -12.308594 C 8.3125 -12.761719 9.386719 -12.761719 10.363281 -12.761719 C 12.796875 -12.691406 19.300781 -12.761719 24.617188 -11.542969 C 25.175781 -11.441406 25.523438 -11.683594 25.523438 -12.238281 L 25.523438 -13.179688 L 25.695312 -16.449219 C 25.800781 -18.429688 24.550781 -19.75 22.566406 -19.75 L 9.355469 -19.75 C 5.84375 -19.75 2.363281 -19.265625 1.078125 -16.273438 C 1.078125 -16.273438 0.0703125 -13.351562 1.878906 -11.71875 C 3.6875 -10.050781 7.40625 -9.320312 16.65625 -7.964844 C 17.144531 -7.894531 18.429688 -7.753906 18.429688 -7.234375 C 18.464844 -6.570312 17.039062 -6.675781 16.238281 -6.710938 C 14.328125 -6.78125 7.371094 -6.851562 2.050781 -8.3125 C 1.460938 -8.484375 1.078125 -8.207031 1.078125 -7.582031 L 1.078125 -6.539062 L 0.902344 -3.269531 C 0.800781 -1.285156 2.050781 0.0351562 4.035156 0.0351562 Z M 4.035156 0.0351562 "/></g></g></g><g fill="rgb(0%, 23.919678%, 45.098877%)" fill-opacity="1"><g transform="translate(50.451302, 143.350046)"><g><path d="M 1.183594 -15.855469 L 1.183594 -3.71875 C 1.183594 -1.496094 2.675781 0 4.867188 0 C 7.09375 0 8.554688 -1.496094 8.519531 -3.6875 L 8.414062 -9.839844 L 8.726562 -15.890625 C 8.867188 -18.1875 7.40625 -19.75 5.078125 -19.75 C 2.746094 -19.75 1.183594 -18.1875 1.183594 -15.855469 Z M 4.035156 -22.011719 L 6.085938 -22.011719 C 8.101562 -22.011719 9.421875 -23.367188 9.421875 -25.382812 C 9.421875 -27.367188 8.101562 -28.722656 6.085938 -28.722656 L 4.035156 -28.722656 C 2.050781 -28.722656 0.695312 -27.367188 0.695312 -25.382812 C 0.695312 -23.367188 2.050781 -22.011719 4.035156 -22.011719 Z M 4.035156 -22.011719 "/></g></g></g><g fill="rgb(0%, 23.919678%, 45.098877%)" fill-opacity="1"><g transform="translate(60.604818, 143.350046)"><g><path d="M 32.789062 -19.960938 C 27.261719 -19.960938 26.460938 -13.945312 26.460938 -13.945312 L 25.453125 -13.945312 L 25.453125 -14.917969 C 25.453125 -19.019531 21.386719 -19.820312 19.300781 -19.960938 L 15.054688 -19.960938 C 9.527344 -19.960938 8.726562 -13.945312 8.726562 -13.945312 L 7.859375 -13.945312 L 8.136719 -16.863281 C 8.277344 -18.601562 7.199219 -19.785156 5.460938 -19.785156 L 4.554688 -19.785156 C 2.226562 -19.785156 0.695312 -18.253906 0.695312 -15.925781 L 0.695312 -3.652344 C 0.695312 -1.460938 2.15625 0 4.382812 0 C 6.570312 0 8.03125 -1.460938 8.03125 -3.652344 L 8.03125 -10.085938 C 8.03125 -12.519531 11.441406 -12.273438 11.441406 -12.273438 L 15.371094 -12.273438 C 18.429688 -12.273438 18.359375 -9.910156 18.359375 -9.910156 L 18.394531 -3.511719 C 18.394531 -1.425781 19.820312 0 21.941406 0 L 25.628906 0 C 25.695312 0 25.765625 -0.0703125 25.765625 -0.175781 L 25.765625 -10.085938 C 25.765625 -12.519531 29.175781 -12.273438 29.175781 -12.273438 L 33.105469 -12.273438 C 36.164062 -12.273438 36.09375 -9.910156 36.09375 -9.910156 L 36.09375 -3.546875 C 36.09375 -1.425781 37.519531 0 39.640625 0 C 41.761719 0 43.1875 -1.425781 43.1875 -3.546875 L 43.1875 -14.917969 C 43.1875 -19.019531 39.152344 -19.820312 37.066406 -19.960938 Z M 32.789062 -19.960938 "/></g></g></g><g fill="rgb(0%, 23.919678%, 45.098877%)" fill-opacity="1"><g transform="translate(104.522268, 143.350046)"><g><path d="M 6.917969 0 L 11.230469 0 C 16.796875 0 17.59375 -5.910156 17.59375 -5.910156 L 18.464844 -5.910156 L 18.222656 -2.957031 C 18.046875 -1.183594 19.125 0 20.898438 0 L 21.835938 0 C 24.167969 0 25.695312 -1.566406 25.695312 -3.894531 L 25.695312 -16.101562 C 25.695312 -18.289062 24.238281 -19.785156 22.011719 -19.785156 C 19.785156 -19.785156 18.289062 -18.289062 18.289062 -16.101562 L 18.289062 -9.769531 C 18.289062 -7.335938 14.882812 -7.582031 14.882812 -7.582031 L 10.882812 -7.582031 C 7.824219 -7.582031 7.894531 -9.945312 7.894531 -9.945312 L 7.894531 -16.203125 C 7.894531 -18.359375 6.433594 -19.785156 4.3125 -19.785156 C 2.15625 -19.785156 0.730469 -18.359375 0.730469 -16.203125 L 0.730469 -4.902344 C 0.730469 -0.800781 4.832031 -0.140625 6.917969 0 Z M 6.917969 0 "/></g></g></g><g fill="rgb(0%, 23.919678%, 45.098877%)" fill-opacity="1"><g transform="translate(130.949232, 143.350046)"><g><path d="M 10.675781 -4.9375 C 10.675781 -6.503906 9.667969 -7.058594 9.074219 -7.824219 C 8.691406 -8.3125 8.554688 -9.320312 8.554688 -11.265625 L 8.554688 -20.410156 C 8.554688 -22.777344 6.988281 -24.339844 4.625 -24.375 C 2.261719 -24.375 0.695312 -22.8125 0.695312 -20.445312 L 0.695312 -6.15625 C 0.695312 -3.09375 1.703125 0 6.292969 0 L 8.484375 0 C 9.804688 0 10.675781 -0.871094 10.675781 -2.191406 Z M 10.675781 -4.9375 "/></g></g></g><g fill="rgb(0%, 23.919678%, 45.098877%)" fill-opacity="1"><g transform="translate(142.111149, 143.350046)"><g><path d="M 7.859375 -9.980469 C 7.859375 -10.117188 7.894531 -12.34375 10.882812 -12.34375 L 14.847656 -12.34375 C 14.847656 -12.34375 18.289062 -12.585938 18.289062 -10.152344 L 18.289062 -9.738281 C 18.289062 -7.300781 14.847656 -7.546875 14.847656 -7.546875 L 10.882812 -7.546875 C 7.894531 -7.546875 7.859375 -9.769531 7.859375 -9.910156 Z M 0.695312 -4.902344 C 0.695312 -0.800781 4.796875 -0.140625 6.886719 0 L 11.195312 0 C 16.761719 0 17.558594 -5.910156 17.558594 -5.910156 L 18.289062 -5.910156 L 18.289062 -0.105469 C 18.289062 -0.0351562 18.324219 0 18.359375 0 L 22.046875 0 C 24.238281 0 25.664062 -1.460938 25.664062 -3.617188 L 25.664062 -15.855469 C 25.664062 -18.1875 24.132812 -19.75 21.800781 -19.75 L 18.222656 -19.75 C 18.046875 -19.75 17.90625 -19.613281 17.941406 -19.4375 L 17.941406 -19.125 L 18.289062 -15.925781 L 18.289062 -13.875 L 17.558594 -13.875 C 17.558594 -13.875 16.761719 -19.785156 11.195312 -19.785156 L 6.886719 -19.785156 C 4.796875 -19.648438 0.695312 -18.984375 0.695312 -14.882812 Z M 0.695312 -4.902344 "/></g></g></g><g fill="rgb(0%, 23.919678%, 45.098877%)" fill-opacity="1"><g transform="translate(168.503341, 143.350046)"><g><path d="M 9.179688 -19.75 L 9.179688 -22.183594 L 9.25 -23.019531 C 9.285156 -23.507812 8.972656 -23.820312 8.484375 -23.785156 L 2.363281 -23.226562 C 2.015625 -23.195312 1.808594 -22.914062 1.808594 -22.566406 L 1.878906 -21.941406 L 1.878906 -19.75 L 1.285156 -19.75 C 0.9375 -19.75 0.730469 -19.507812 0.730469 -19.160156 L 0.730469 -13.421875 C 0.730469 -13.109375 0.9375 -12.867188 1.285156 -12.867188 L 1.878906 -12.867188 L 1.878906 -6.15625 C 2.015625 -4.070312 2.644531 0 6.746094 0 L 15.996094 0 C 18.117188 0 19.542969 -1.425781 19.542969 -3.546875 C 19.542969 -5.667969 18.117188 -7.09375 15.996094 -7.09375 L 11.753906 -7.09375 C 11.753906 -7.09375 9.492188 -7.058594 9.386719 -9.910156 L 9.386719 -10.085938 L 9.320312 -12.867188 L 16.101562 -12.867188 C 18.152344 -12.867188 19.542969 -14.257812 19.542969 -16.308594 C 19.542969 -18.359375 18.152344 -19.75 16.101562 -19.75 Z M 9.179688 -19.75 "/></g></g></g><g fill="rgb(0%, 23.919678%, 45.098877%)" fill-opacity="1"><g transform="translate(188.740828, 143.350046)"><g><path d="M 12.101562 -5.945312 C 10.746094 -5.945312 8.242188 -6.78125 8.242188 -9.945312 C 8.242188 -13.699219 12.136719 -13.839844 12.308594 -13.839844 L 13.910156 -13.839844 C 14.082031 -13.839844 17.976562 -13.734375 18.011719 -9.945312 C 18.011719 -6.292969 14.640625 -5.945312 13.910156 -5.945312 Z M 10.8125 -19.996094 C 2.46875 -19.996094 0.695312 -14.222656 0.695312 -11.753906 L 0.695312 -8.03125 C 0.695312 -1.773438 5.214844 0.207031 11.160156 0.207031 L 15.335938 0.207031 C 21.59375 0.207031 25.488281 -2.675781 25.523438 -8.03125 L 25.523438 -11.753906 C 25.628906 -14.046875 24.167969 -19.996094 15.4375 -19.996094 Z M 10.8125 -19.996094 "/></g></g></g><g fill="rgb(0%, 23.919678%, 45.098877%)" fill-opacity="1"><g transform="translate(214.993947, 143.350046)"><g><path d="M 16.726562 -19.890625 L 15.195312 -19.890625 C 9.632812 -19.890625 8.832031 -13.980469 8.832031 -13.980469 L 7.964844 -13.980469 L 8.207031 -16.863281 C 8.378906 -18.570312 7.335938 -19.714844 5.597656 -19.75 L 4.589844 -19.75 C 2.261719 -19.75 0.730469 -18.222656 0.730469 -15.890625 L 0.730469 -3.6875 C 0.730469 -1.496094 2.191406 0 4.417969 0 C 6.640625 0 8.136719 -1.496094 8.136719 -3.6875 L 8.136719 -10.117188 C 8.136719 -12.554688 11.542969 -12.308594 11.542969 -12.308594 L 12.726562 -12.308594 C 15.820312 -12.308594 15.753906 -9.945312 15.753906 -9.945312 L 15.753906 -9.179688 C 15.753906 -8.726562 16.066406 -8.414062 16.515625 -8.414062 L 19.648438 -8.414062 C 21.59375 -8.414062 22.914062 -9.738281 22.914062 -11.71875 L 22.914062 -14.988281 C 22.914062 -19.089844 18.8125 -19.75 16.726562 -19.890625 Z M 16.726562 -19.890625 "/></g></g></g></svg>